<?xml version="1.0"?>
<svg xmlns="http://www.w3.org/2000/svg" xmlns:xlink="http://www.w3.org/1999/xlink" version="1.1" viewBox="0 0 192 192" width="32px" height="32px"><g fill="none" fill-rule="nonzero" stroke="none" stroke-width="1" stroke-linecap="butt" stroke-linejoin="miter" stroke-miterlimit="10" stroke-dasharray="" stroke-dashoffset="0" font-family="none" font-weight="none" font-size="none" text-anchor="none" style="mix-blend-mode: normal"><path d="M0,192v-192h192v192z" fill="none"/><path d="M0,96c0,-53.01934 42.98066,-96 96,-96c53.01934,0 96,42.98066 96,96c0,53.01934 -42.98066,96 -96,96c-53.01934,0 -96,-42.98066 -96,-96zM96,180.48c46.65702,0 84.48,-37.82298 84.48,-84.48c0,-46.65702 -37.82298,-84.48 -84.48,-84.48c-46.65702,0 -84.48,37.82298 -84.48,84.48c0,46.65702 37.82298,84.48 84.48,84.48z" fill="currentColor"/><g id="original-icon" fill="currentColor"><g id="surface1"><path d="M96,30.6c-20.81953,0 -37.8,16.98047 -37.8,37.8c0,12.93047 6.58125,24.40547 16.5375,31.21875c-19.32187,8.22657 -32.7375,27.42188 -32.7375,49.78125h10.8c0,-24.11016 19.08984,-43.2 43.2,-43.2c24.11016,0 43.2,19.08984 43.2,43.2h10.8c0,-22.35937 -13.41563,-41.55468 -32.7375,-49.78125c9.95625,-6.81328 16.5375,-18.28828 16.5375,-31.21875c0,-20.81953 -16.98047,-37.8 -37.8,-37.8zM96,41.4c14.97657,0 27,12.02344 27,27c0,14.97657 -12.02343,27 -27,27c-14.97656,0 -27,-12.02343 -27,-27c0,-14.97656 12.02344,-27 27,-27z"/></g></g><path d="M96,192c-53.01934,0 -96,-42.98066 -96,-96v0c0,-53.01934 42.98066,-96 96,-96v0c53.01934,0 96,42.98066 96,96v0c0,53.01934 -42.98066,96 -96,96z" fill="none"/><path d="M96,184.32c-48.77779,0 -88.32,-39.54221 -88.32,-88.32v0c0,-48.77779 39.54221,-88.32 88.32,-88.32v0c48.77779,0 88.32,39.54221 88.32,88.32v0c0,48.77779 -39.54221,88.32 -88.32,88.32z" fill="none"/><path d="M96,192c-53.01934,0 -96,-42.98066 -96,-96v0c0,-53.01934 42.98066,-96 96,-96v0c53.01934,0 96,42.98066 96,96v0c0,53.01934 -42.98066,96 -96,96z" fill="none"/><path d="M96,188.16c-50.89856,0 -92.16,-41.26144 -92.16,-92.16v0c0,-50.89856 41.26144,-92.16 92.16,-92.16v0c50.89856,0 92.16,41.26144 92.16,92.16v0c0,50.89856 -41.26144,92.16 -92.16,92.16z" fill="none"/><path d="M96,192c-53.01934,0 -96,-42.98066 -96,-96v0c0,-53.01934 42.98066,-96 96,-96v0c53.01934,0 96,42.98066 96,96v0c0,53.01934 -42.98066,96 -96,96z" fill="none"/><path d="M96,184.32c-48.77779,0 -88.32,-39.54221 -88.32,-88.32v0c0,-48.77779 39.54221,-88.32 88.32,-88.32v0c48.77779,0 88.32,39.54221 88.32,88.32v0c0,48.77779 -39.54221,88.32 -88.32,88.32z" fill="none"/><path d="M96,192c-53.01934,0 -96,-42.98066 -96,-96v0c0,-53.01934 42.98066,-96 96,-96v0c53.01934,0 96,42.98066 96,96v0c0,53.01934 -42.98066,96 -96,96z" fill="none"/><path d="M96,180.48c-46.65702,0 -84.48,-37.82298 -84.48,-84.48v0c0,-46.65702 37.82298,-84.48 84.48,-84.48h0c46.65702,0 84.48,37.82298 84.48,84.48v0c0,46.65702 -37.82298,84.48 -84.48,84.48z" fill="none"/><path d="M96,192c-53.01934,0 -96,-42.98066 -96,-96v0c0,-53.01934 42.98066,-96 96,-96v0c53.01934,0 96,42.98066 96,96v0c0,53.01934 -42.98066,96 -96,96z" fill="none"/><path d="M96,176.64c-44.53624,0 -80.64,-36.10376 -80.64,-80.64v0c0,-44.53624 36.10376,-80.64 80.64,-80.64h0c44.53624,0 80.64,36.10376 80.64,80.64v0c0,44.53624 -36.10376,80.64 -80.64,80.64z" fill="none"/><path d="M96,192c-53.01934,0 -96,-42.98066 -96,-96v0c0,-53.01934 42.98066,-96 96,-96v0c53.01934,0 96,42.98066 96,96v0c0,53.01934 -42.98066,96 -96,96z" fill="none"/><path d="M96,172.8c-42.41547,0 -76.8,-34.38453 -76.8,-76.8v0c0,-42.41547 34.38453,-76.8 76.8,-76.8h0c42.41547,0 76.8,34.38453 76.8,76.8v0c0,42.41547 -34.38453,76.8 -76.8,76.8z" fill="none"/><path d="M96,192c-53.01934,0 -96,-42.98066 -96,-96v0c0,-53.01934 42.98066,-96 96,-96v0c53.01934,0 96,42.98066 96,96v0c0,53.01934 -42.98066,96 -96,96z" fill="none"/><path d="M96,168.96c-40.2947,0 -72.96,-32.6653 -72.96,-72.96v0c0,-40.2947 32.6653,-72.96 72.96,-72.96v0c40.2947,0 72.96,32.6653 72.96,72.96v0c0,40.2947 -32.6653,72.96 -72.96,72.96z" fill="none"/><path d="M96,192c-53.01934,0 -96,-42.98066 -96,-96v0c0,-53.01934 42.98066,-96 96,-96v0c53.01934,0 96,42.98066 96,96v0c0,53.01934 -42.98066,96 -96,96z" fill="none"/><path d="M96,165.12c-38.17392,0 -69.12,-30.94608 -69.12,-69.12v0c0,-38.17392 30.94608,-69.12 69.12,-69.12v0c38.17392,0 69.12,30.94608 69.12,69.12v0c0,38.17392 -30.94608,69.12 -69.12,69.12z" fill="none"/><path d="M96,192c-53.01934,0 -96,-42.98066 -96,-96v0c0,-53.01934 42.98066,-96 96,-96v0c53.01934,0 96,42.98066 96,96v0c0,53.01934 -42.98066,96 -96,96z" fill="none"/><path d="M96,161.28c-36.05315,0 -65.28,-29.22685 -65.28,-65.28v0c0,-36.05315 29.22685,-65.28 65.28,-65.28v0c36.05315,0 65.28,29.22685 65.28,65.28v0c0,36.05315 -29.22685,65.28 -65.28,65.28z" fill="none"/><path d="M96,192c-53.01934,0 -96,-42.98066 -96,-96v0c0,-53.01934 42.98066,-96 96,-96v0c53.01934,0 96,42.98066 96,96v0c0,53.01934 -42.98066,96 -96,96z" fill="none"/><path d="M96,153.6c-31.8116,0 -57.6,-25.7884 -57.6,-57.6v0c0,-31.8116 25.7884,-57.6 57.6,-57.6v0c31.8116,0 57.6,25.7884 57.6,57.6v0c0,31.8116 -25.7884,57.6 -57.6,57.6z" fill="none"/><path d="M96,192c-53.01934,0 -96,-42.98066 -96,-96v0c0,-53.01934 42.98066,-96 96,-96v0c53.01934,0 96,42.98066 96,96v0c0,53.01934 -42.98066,96 -96,96z" fill="none"/><path d="M96,157.44c-33.93238,0 -61.44,-27.50762 -61.44,-61.44v0c0,-33.93238 27.50762,-61.44 61.44,-61.44v0c33.93238,0 61.44,27.50762 61.44,61.44v0c0,33.93238 -27.50762,61.44 -61.44,61.44z" fill="none"/><path d="M96,192c-53.01934,0 -96,-42.98066 -96,-96v0c0,-53.01934 42.98066,-96 96,-96v0c53.01934,0 96,42.98066 96,96v0c0,53.01934 -42.98066,96 -96,96z" fill="none"/><path d="M96,161.28c-36.05315,0 -65.28,-29.22685 -65.28,-65.28v0c0,-36.05315 29.22685,-65.28 65.28,-65.28v0c36.05315,0 65.28,29.22685 65.28,65.28v0c0,36.05315 -29.22685,65.28 -65.28,65.28z" fill="none"/><path d="M96,192c-53.01934,0 -96,-42.98066 -96,-96v0c0,-53.01934 42.98066,-96 96,-96v0c53.01934,0 96,42.98066 96,96v0c0,53.01934 -42.98066,96 -96,96z" fill="none"/><path d="M96,165.12c-38.17392,0 -69.12,-30.94608 -69.12,-69.12v0c0,-38.17392 30.94608,-69.12 69.12,-69.12v0c38.17392,0 69.12,30.94608 69.12,69.12v0c0,38.17392 -30.94608,69.12 -69.12,69.12z" fill="none"/><path d="M96,192c-53.01934,0 -96,-42.98066 -96,-96v0c0,-53.01934 42.98066,-96 96,-96v0c53.01934,0 96,42.98066 96,96v0c0,53.01934 -42.98066,96 -96,96z" fill="none"/><path d="M96,168.96c-40.2947,0 -72.96,-32.6653 -72.96,-72.96v0c0,-40.2947 32.6653,-72.96 72.96,-72.96v0c40.2947,0 72.96,32.6653 72.96,72.96v0c0,40.2947 -32.6653,72.96 -72.96,72.96z" fill="none"/><path d="M96,192c-53.01934,0 -96,-42.98066 -96,-96v0c0,-53.01934 42.98066,-96 96,-96v0c53.01934,0 96,42.98066 96,96v0c0,53.01934 -42.98066,96 -96,96z" fill="none"/><path d="M96,172.8c-42.41547,0 -76.8,-34.38453 -76.8,-76.8v0c0,-42.41547 34.38453,-76.8 76.8,-76.8h0c42.41547,0 76.8,34.38453 76.8,76.8v0c0,42.41547 -34.38453,76.8 -76.8,76.8z" fill="none"/><path d="M96,192c-53.01934,0 -96,-42.98066 -96,-96v0c0,-53.01934 42.98066,-96 96,-96v0c53.01934,0 96,42.98066 96,96v0c0,53.01934 -42.98066,96 -96,96z" fill="none"/><path d="M96,176.64c-44.53624,0 -80.64,-36.10376 -80.64,-80.64v0c0,-44.53624 36.10376,-80.64 80.64,-80.64h0c44.53624,0 80.64,36.10376 80.64,80.64v0c0,44.53624 -36.10376,80.64 -80.64,80.64z" fill="none"/><path d="M96,192c-53.01934,0 -96,-42.98066 -96,-96v0c0,-53.01934 42.98066,-96 96,-96v0c53.01934,0 96,42.98066 96,96v0c0,53.01934 -42.98066,96 -96,96z" fill="none"/><path d="M96,180.48c-46.65702,0 -84.48,-37.82298 -84.48,-84.48v0c0,-46.65702 37.82298,-84.48 84.48,-84.48h0c46.65702,0 84.48,37.82298 84.48,84.48v0c0,46.65702 -37.82298,84.48 -84.48,84.48z" fill="none"/><path d="M96,192c-53.01934,0 -96,-42.98066 -96,-96v0c0,-53.01934 42.98066,-96 96,-96v0c53.01934,0 96,42.98066 96,96v0c0,53.01934 -42.98066,96 -96,96z" fill="none"/><path d="M96,184.32c-48.77779,0 -88.32,-39.54221 -88.32,-88.32v0c0,-48.77779 39.54221,-88.32 88.32,-88.32v0c48.77779,0 88.32,39.54221 88.32,88.32v0c0,48.77779 -39.54221,88.32 -88.32,88.32z" fill="none"/><path d="M96,192c-53.01934,0 -96,-42.98066 -96,-96v0c0,-53.01934 42.98066,-96 96,-96v0c53.01934,0 96,42.98066 96,96v0c0,53.01934 -42.98066,96 -96,96z" fill="none"/><path d="M96,188.16c-50.89856,0 -92.16,-41.26144 -92.16,-92.16v0c0,-50.89856 41.26144,-92.16 92.16,-92.16v0c50.89856,0 92.16,41.26144 92.16,92.16v0c0,50.89856 -41.26144,92.16 -92.16,92.16z" fill="none"/><path d="M96,192c-53.01934,0 -96,-42.98066 -96,-96v0c0,-53.01934 42.98066,-96 96,-96v0c53.01934,0 96,42.98066 96,96v0c0,53.01934 -42.98066,96 -96,96z" fill="none"/><path d="M96,184.32c-48.77779,0 -88.32,-39.54221 -88.32,-88.32v0c0,-48.77779 39.54221,-88.32 88.32,-88.32v0c48.77779,0 88.32,39.54221 88.32,88.32v0c0,48.77779 -39.54221,88.32 -88.32,88.32z" fill="none"/><path d="M96,192c-53.01934,0 -96,-42.98066 -96,-96v0c0,-53.01934 42.98066,-96 96,-96v0c53.01934,0 96,42.98066 96,96v0c0,53.01934 -42.98066,96 -96,96z" fill="none"/><path d="M96,180.48c-46.65702,0 -84.48,-37.82298 -84.48,-84.48v0c0,-46.65702 37.82298,-84.48 84.48,-84.48h0c46.65702,0 84.48,37.82298 84.48,84.48v0c0,46.65702 -37.82298,84.48 -84.48,84.48z" fill="none"/><path d="M96,192c-53.01934,0 -96,-42.98066 -96,-96v0c0,-53.01934 42.98066,-96 96,-96v0c53.01934,0 96,42.98066 96,96v0c0,53.01934 -42.98066,96 -96,96z" fill="none"/><path d="M96,176.64c-44.53624,0 -80.64,-36.10376 -80.64,-80.64v0c0,-44.53624 36.10376,-80.64 80.64,-80.64h0c44.53624,0 80.64,36.10376 80.64,80.64v0c0,44.53624 -36.10376,80.64 -80.64,80.64z" fill="none"/><path d="M96,192c-53.01934,0 -96,-42.98066 -96,-96v0c0,-53.01934 42.98066,-96 96,-96v0c53.01934,0 96,42.98066 96,96v0c0,53.01934 -42.98066,96 -96,96z" fill="none"/><path d="M96,180.48c-46.65702,0 -84.48,-37.82298 -84.48,-84.48v0c0,-46.65702 37.82298,-84.48 84.48,-84.48h0c46.65702,0 84.48,37.82298 84.48,84.48v0c0,46.65702 -37.82298,84.48 -84.48,84.48z" fill="none"/><path d="M96,192c-53.01934,0 -96,-42.98066 -96,-96v0c0,-53.01934 42.98066,-96 96,-96v0c53.01934,0 96,42.98066 96,96v0c0,53.01934 -42.98066,96 -96,96z" fill="none"/><path d="M96,180.48c-46.65702,0 -84.48,-37.82298 -84.48,-84.48v0c0,-46.65702 37.82298,-84.48 84.48,-84.48h0c46.65702,0 84.48,37.82298 84.48,84.48v0c0,46.65702 -37.82298,84.48 -84.48,84.48z" fill="none"/></g></svg>
