<?xml version="1.0"?>
<svg xmlns="http://www.w3.org/2000/svg" xmlns:xlink="http://www.w3.org/1999/xlink" version="1.1" viewBox="0 0 192 192" width="48px" height="48px"><g transform="translate(-28.8,-28.8) scale(1.3,1.3)"><g fill="none" fill-rule="nonzero" stroke="none" stroke-width="1" stroke-linecap="butt" stroke-linejoin="miter" stroke-miterlimit="10" stroke-dasharray="" stroke-dashoffset="0" font-family="none" font-weight="none" font-size="none" text-anchor="none" style="mix-blend-mode: normal"><path d="M0,192v-192h192v192z" fill="none"/><g fill="currentColor"><g id="surface1"><path d="M45,30c-8.20312,0 -15,6.79688 -15,15v102c0,8.20313 6.79688,15 15,15h102c8.20313,0 15,-6.79687 15,-15v-102c0,-8.20312 -6.79687,-15 -15,-15zM45,42h102c1.71094,0 3,1.28906 3,3v102c0,1.71094 -1.28906,3 -3,3h-102c-1.71094,0 -3,-1.28906 -3,-3v-102c0,-1.71094 1.28906,-3 3,-3zM62.625,52.3125c-5.69531,0 -10.3125,4.61719 -10.3125,10.3125c0,5.69531 4.61719,10.3125 10.3125,10.3125c5.69531,0 10.3125,-4.61719 10.3125,-10.3125c0,-5.69531 -4.61719,-10.3125 -10.3125,-10.3125zM116.8125,79.6875c-8.60156,0 -14.32031,4.71094 -16.6875,9.1875h-0.375v-7.875h-16.875v57h17.625v-28.125c0,-7.42969 1.47656,-14.625 10.6875,-14.625c9.07031,0 9.1875,8.39063 9.1875,15v27.75h17.625v-31.3125c0,-15.32812 -3.25781,-27 -21.1875,-27zM54,81v57h17.8125v-57z"/></g></g></g></g></svg>
