<?xml version="1.0" standalone="no"?>
<!DOCTYPE svg PUBLIC "-//W3C//DTD SVG 20010904//EN"
 "http://www.w3.org/TR/2001/REC-SVG-20010904/DTD/svg10.dtd">
<svg version="1.0" xmlns="http://www.w3.org/2000/svg"
 width="239.000000pt" height="412.000000pt" viewBox="0 0 239.000000 412.000000"
 preserveAspectRatio="xMidYMid meet">
<metadata>
Created by potrace 1.15, written by Peter Selinger 2001-2017
</metadata>
<g transform="translate(0.000000,412.000000) scale(0.100000,-0.100000)"
fill="#000000" stroke="none">
<path d="M1051 3799 c-47 -9 -80 -27 -124 -68 -28 -25 -28 -28 -22 -101 4 -41
13 -84 20 -95 9 -15 11 -82 8 -270 -4 -291 -13 -366 -50 -432 -14 -27 -31 -57
-37 -67 -18 -32 -145 -179 -177 -204 -16 -13 -29 -29 -29 -36 0 -6 -13 -27
-30 -46 l-29 -35 -1 -153 c0 -146 1 -156 25 -196 14 -24 23 -45 20 -48 -6 -6
-6 -412 0 -588 9 -284 8 -499 -2 -512 -10 -11 -18 -201 -14 -304 1 -39 56
-121 97 -146 65 -40 143 -71 224 -88 220 -47 365 -41 579 21 163 48 242 94
278 162 23 44 19 321 -5 356 -15 23 -17 55 -18 256 -1 127 -3 377 -5 557 -3
314 -3 327 16 348 18 20 20 37 20 179 l0 156 -38 53 c-21 30 -67 81 -101 115
-58 57 -140 157 -177 217 -34 54 -56 197 -59 385 -1 61 -3 153 -5 205 -3 86
-2 97 18 118 18 19 21 34 20 88 -4 131 -63 174 -245 178 -62 1 -133 -1 -157
-5z m233 -25 c61 -10 115 -41 127 -72 14 -37 13 -126 -2 -149 -6 -11 -35 -34
-63 -52 -45 -28 -47 -32 -21 -27 17 2 37 7 45 10 17 7 17 14 20 -314 2 -117 8
-204 16 -238 29 -113 121 -258 209 -331 106 -89 125 -126 83 -162 -37 -31
-128 -82 -193 -108 -33 -13 -64 -27 -69 -32 -12 -11 71 0 126 17 44 14 159 87
166 105 2 5 10 9 19 9 13 0 14 -22 11 -151 l-3 -151 -40 -34 c-61 -52 -133
-90 -206 -108 -36 -9 -73 -16 -83 -16 -10 0 -14 -5 -11 -11 15 -24 211 27 276
73 20 13 28 15 31 5 3 -6 6 -219 8 -472 2 -253 3 -490 4 -527 0 -53 -4 -71
-19 -89 -26 -29 -117 -88 -180 -117 -49 -22 -49 -23 -13 -17 51 8 135 47 182
84 21 17 42 31 47 31 16 0 21 -45 21 -175 0 -154 -7 -173 -81 -223 -52 -36
-185 -82 -276 -96 -16 -2 -50 -8 -75 -12 -225 -35 -597 48 -677 152 -23 31
-25 41 -27 166 -2 136 1 178 13 178 4 0 34 -17 67 -38 61 -39 104 -56 164 -66
l35 -6 -35 15 c-19 9 -42 20 -50 25 -8 5 -29 16 -46 24 -17 8 -52 34 -78 58
l-46 45 0 379 c0 208 -3 448 -5 532 -2 83 -1 152 3 152 4 0 39 -16 77 -35 46
-22 94 -38 140 -44 91 -12 105 2 19 18 -80 15 -194 70 -246 120 l-37 36 -2
143 c-1 78 0 145 4 148 3 4 16 -5 29 -19 43 -48 158 -101 244 -113 67 -9 54
11 -23 36 -67 22 -191 89 -213 115 -19 23 -4 47 98 151 106 109 148 172 187
279 25 69 25 75 25 344 l0 273 23 -6 c12 -4 45 -9 72 -12 l50 -5 -53 18 c-29
10 -68 31 -87 46 -34 27 -35 30 -35 97 0 63 2 70 30 93 63 53 191 74 324 51z"/>
<path d="M1070 1855 c-75 -24 -151 -76 -189 -130 -32 -43 -36 -57 -39 -120 -2
-54 1 -78 16 -104 39 -71 151 -95 210 -46 16 14 33 37 36 52 9 34 -10 80 -36
86 -31 8 -78 -12 -78 -34 0 -27 -18 -24 -31 5 -27 58 22 140 105 180 79 37
221 40 288 5 77 -39 116 -114 99 -189 -12 -56 -36 -78 -149 -146 -112 -67
-178 -124 -198 -172 -19 -47 -18 -126 2 -147 21 -20 88 -17 91 5 1 8 5 36 8
62 9 69 43 104 150 154 176 83 225 142 225 277 0 112 -49 186 -158 239 -62 30
-75 32 -187 35 -85 2 -133 -1 -165 -12z"/>
<path d="M1118 994 c-57 -30 -65 -98 -19 -145 62 -62 151 -24 151 65 0 37 -5
48 -31 70 -34 29 -61 32 -101 10z"/>
</g>
</svg>
