<?xml version="1.0" standalone="no"?>
<!DOCTYPE svg PUBLIC "-//W3C//DTD SVG 20010904//EN"
 "http://www.w3.org/TR/2001/REC-SVG-20010904/DTD/svg10.dtd">
<svg version="1.0" xmlns="http://www.w3.org/2000/svg"
 width="600.000000pt" height="294.000000pt" viewBox="0 0 600.000000 294.000000"
 preserveAspectRatio="xMidYMid meet">
<metadata>
Created by potrace 1.15, written by Peter Selinger 2001-2017
</metadata>
<g transform="translate(0.000000,294.000000) scale(0.100000,-0.100000)"
fill="#000000" stroke="none">
<path d="M435 2891 c-86 -22 -115 -72 -96 -165 15 -72 15 -390 0 -511 -13
-100 -56 -176 -161 -285 -40 -41 -77 -82 -83 -91 -5 -9 -18 -27 -27 -41 -24
-33 -28 -267 -5 -301 11 -18 13 -102 12 -489 -1 -302 -5 -471 -12 -480 -5 -7
-11 -69 -12 -138 -2 -122 -1 -126 27 -170 59 -93 272 -163 486 -159 189 3 399
76 452 157 15 23 18 47 16 161 -1 76 -6 139 -12 146 -7 9 -10 164 -9 474 2
428 4 462 21 488 15 23 18 49 18 150 0 118 -1 123 -29 165 -16 24 -50 66 -76
93 -61 65 -128 152 -148 191 -30 57 -37 116 -43 342 -6 209 -6 224 12 243 15
16 19 36 18 85 -1 72 -15 96 -74 121 -40 17 -227 27 -275 14z m273 -35 c40
-21 61 -65 57 -120 -3 -32 -12 -48 -40 -74 -26 -24 -31 -32 -16 -27 21 6 21 5
21 -207 0 -306 20 -366 175 -526 44 -46 84 -93 90 -104 15 -33 -24 -60 -215
-147 -22 -9 -19 -10 20 -5 60 9 138 44 182 83 35 30 37 31 43 11 4 -11 3 -69
0 -128 -6 -97 -9 -110 -33 -135 -29 -31 -118 -79 -166 -91 -15 -4 -26 -10 -22
-13 9 -9 95 18 143 45 l43 24 0 -438 c-1 -241 -3 -448 -6 -460 -6 -23 -75 -78
-134 -106 -19 -9 -29 -17 -22 -17 17 -1 132 56 154 76 16 14 18 14 26 -8 7
-20 9 -158 3 -234 -8 -116 -402 -206 -645 -148 -33 8 -68 16 -76 18 -84 20
-174 69 -199 108 -18 30 -21 50 -21 155 0 72 4 123 10 127 6 4 34 -9 63 -28
58 -39 127 -70 127 -58 0 4 -17 16 -37 25 -21 9 -60 36 -86 59 l-48 42 1 444
c0 245 2 447 5 449 2 2 19 -5 38 -17 45 -28 145 -62 151 -52 3 4 -14 14 -37
20 -53 16 -136 63 -165 93 -20 22 -22 35 -23 147 0 67 1 125 4 128 3 2 22 -11
44 -29 21 -19 59 -44 85 -56 57 -26 135 -41 124 -24 -4 7 -16 12 -26 12 -24 0
-148 64 -177 92 -13 12 -23 29 -23 38 0 8 27 42 61 75 91 90 149 169 180 249
28 70 28 73 29 300 0 213 1 228 18 221 9 -4 28 -9 42 -11 25 -4 25 -4 -2 9
-58 27 -78 57 -78 112 0 43 4 55 28 77 39 38 83 48 197 45 72 -2 109 -8 133
-21z"/>
<path d="M1655 2891 c-86 -22 -115 -72 -96 -165 16 -73 15 -392 -1 -511 -13
-100 -56 -177 -160 -285 -40 -41 -77 -82 -83 -91 -5 -9 -18 -27 -27 -41 -24
-33 -28 -267 -5 -301 11 -18 13 -102 12 -489 -1 -302 -5 -471 -12 -480 -5 -7
-11 -69 -12 -138 -2 -122 -1 -126 27 -170 59 -93 272 -163 486 -159 189 3 398
76 452 157 16 23 18 46 16 161 -1 75 -6 139 -12 146 -7 9 -10 164 -9 474 2
428 4 462 21 488 15 23 18 49 18 150 0 118 -1 123 -29 165 -16 24 -50 66 -76
93 -61 65 -128 152 -148 191 -30 57 -37 116 -43 342 -6 209 -6 224 12 243 15
16 19 36 18 85 -1 72 -15 96 -74 121 -40 17 -227 27 -275 14z m273 -35 c40
-21 61 -65 57 -120 -3 -32 -12 -48 -40 -74 -26 -24 -31 -32 -16 -27 21 6 21 5
21 -207 0 -306 20 -366 175 -526 44 -46 84 -93 90 -104 15 -33 -24 -60 -215
-147 -22 -9 -19 -10 20 -5 60 9 138 44 183 83 l36 32 7 -25 c3 -14 4 -54 1
-88 -4 -35 -6 -82 -6 -104 -1 -31 -8 -48 -28 -69 -30 -29 -120 -78 -167 -89
-15 -4 -26 -10 -22 -13 9 -9 95 18 143 45 l43 24 0 -438 c-1 -241 -3 -448 -6
-460 -6 -23 -75 -78 -134 -106 -19 -9 -29 -17 -22 -17 17 -1 132 56 154 76 16
14 18 14 26 -8 7 -20 9 -158 3 -234 -8 -116 -402 -206 -645 -148 -33 8 -68 16
-76 18 -84 20 -174 69 -199 108 -18 30 -21 50 -21 155 0 72 4 123 10 127 6 4
34 -9 63 -28 58 -39 127 -70 127 -58 0 4 -17 16 -37 25 -21 9 -60 36 -86 59
l-48 42 1 444 c0 245 2 447 5 449 2 2 19 -5 38 -17 45 -28 145 -62 151 -52 3
4 -14 14 -37 20 -53 16 -136 63 -165 93 -20 22 -22 35 -23 147 0 67 1 125 4
128 3 2 22 -11 44 -29 21 -19 59 -44 85 -56 57 -26 135 -41 124 -24 -4 7 -16
12 -26 12 -24 0 -148 64 -177 92 -13 12 -23 29 -23 38 0 8 27 42 61 75 91 90
149 169 180 249 28 70 28 73 29 300 0 213 1 228 18 221 9 -4 28 -9 42 -11 25
-4 25 -4 -2 9 -58 27 -78 57 -78 112 0 43 4 55 28 77 39 38 83 48 197 45 72
-2 109 -8 133 -21z"/>
<path d="M2875 2891 c-86 -22 -115 -72 -96 -165 16 -73 15 -392 -1 -511 -13
-100 -56 -177 -160 -285 -40 -41 -77 -82 -83 -91 -5 -9 -18 -27 -27 -41 -24
-33 -28 -267 -5 -301 11 -18 13 -102 12 -489 -1 -302 -5 -471 -12 -480 -5 -7
-11 -69 -12 -138 -2 -122 -1 -126 27 -170 59 -93 272 -163 486 -159 189 3 398
76 452 157 16 23 18 46 16 161 -1 75 -6 139 -12 146 -7 9 -10 164 -9 474 2
428 4 462 21 488 15 23 18 49 18 150 0 118 -1 123 -29 165 -16 24 -50 66 -76
93 -61 65 -128 152 -148 191 -30 57 -37 116 -43 342 -6 209 -6 224 12 243 15
16 19 36 18 85 -1 72 -15 96 -74 121 -40 17 -227 27 -275 14z m273 -35 c40
-21 61 -65 57 -120 -3 -32 -12 -48 -40 -74 -26 -24 -31 -32 -16 -27 21 6 21 5
21 -207 0 -306 20 -366 175 -526 44 -46 84 -93 90 -104 15 -33 -24 -60 -215
-147 -22 -9 -19 -10 20 -5 60 9 138 44 182 83 35 30 37 31 43 11 4 -11 3 -69
0 -128 -6 -97 -9 -110 -33 -135 -29 -31 -118 -79 -166 -91 -15 -4 -26 -10 -22
-13 9 -9 95 18 143 45 l43 24 0 -438 c-1 -241 -3 -448 -6 -460 -6 -23 -75 -78
-134 -106 -19 -9 -29 -17 -22 -17 17 -1 132 56 154 76 16 14 18 14 26 -8 7
-20 9 -158 3 -234 -8 -116 -402 -206 -645 -148 -33 8 -68 16 -76 18 -84 20
-174 69 -199 108 -18 30 -21 50 -21 155 0 72 4 123 10 127 6 4 34 -9 63 -28
58 -39 127 -70 127 -58 0 4 -17 16 -37 25 -21 9 -60 36 -86 59 l-48 42 1 444
c0 245 2 447 5 449 2 2 19 -5 38 -17 45 -28 145 -62 151 -52 3 4 -14 14 -37
20 -53 16 -136 63 -165 93 -20 22 -22 35 -23 147 0 67 1 125 4 128 3 2 22 -11
44 -29 21 -19 59 -44 85 -56 57 -26 135 -41 124 -24 -4 7 -16 12 -26 12 -24 0
-148 64 -177 92 -13 12 -23 29 -23 38 0 8 30 45 66 80 87 86 148 173 179 254
24 64 25 76 25 292 0 212 1 226 18 219 9 -4 28 -9 42 -11 25 -4 25 -4 -2 9
-58 27 -78 57 -78 112 0 43 4 55 28 77 39 38 83 48 197 45 72 -2 109 -8 133
-21z"/>
<path d="M4115 2891 c-86 -22 -115 -72 -96 -165 15 -72 15 -390 0 -511 -13
-100 -56 -176 -161 -285 -40 -41 -77 -82 -83 -91 -5 -9 -18 -27 -27 -41 -24
-33 -28 -267 -5 -301 11 -18 13 -102 12 -489 -1 -302 -5 -471 -12 -480 -5 -7
-11 -69 -12 -138 -2 -122 -1 -126 27 -170 59 -93 272 -163 486 -159 189 3 399
76 452 157 15 23 18 47 16 161 -1 76 -6 139 -12 146 -7 9 -10 164 -9 474 2
428 4 462 21 488 15 23 18 49 18 150 0 118 -1 123 -29 165 -16 24 -50 66 -76
93 -61 65 -128 152 -148 191 -30 57 -37 116 -43 342 -6 209 -6 224 12 243 15
16 19 36 18 85 -1 72 -15 96 -74 121 -40 17 -227 27 -275 14z m273 -35 c40
-21 61 -65 57 -120 -3 -32 -12 -48 -40 -74 -26 -24 -31 -32 -16 -27 21 6 21 5
21 -207 0 -306 20 -366 175 -526 44 -46 84 -93 90 -104 15 -33 -24 -60 -215
-147 -22 -9 -19 -10 20 -5 60 9 138 44 182 83 35 30 37 31 43 11 4 -11 3 -69
0 -128 -6 -97 -9 -110 -33 -135 -29 -31 -118 -79 -166 -91 -15 -4 -26 -10 -22
-13 9 -9 95 18 143 45 l43 24 0 -438 c-1 -241 -3 -448 -6 -460 -6 -23 -75 -78
-134 -106 -19 -9 -29 -17 -22 -17 17 -1 132 56 154 76 16 14 18 14 26 -8 7
-20 9 -158 3 -234 -8 -116 -402 -206 -645 -148 -33 8 -68 16 -76 18 -84 20
-174 69 -199 108 -18 30 -21 50 -21 155 0 72 4 123 10 127 6 4 34 -9 63 -28
58 -39 127 -70 127 -58 0 4 -17 16 -37 25 -21 9 -60 36 -86 59 l-48 42 1 444
c0 245 2 447 5 449 2 2 19 -5 38 -17 45 -28 145 -62 151 -52 3 4 -14 14 -37
20 -53 16 -136 63 -165 93 -20 22 -22 35 -23 147 0 67 1 125 4 128 3 2 22 -11
44 -29 21 -19 59 -44 85 -56 57 -26 135 -41 124 -24 -4 7 -16 12 -26 12 -24 0
-148 64 -177 92 -13 12 -23 29 -23 38 0 8 27 42 61 75 91 90 149 169 180 249
28 70 28 73 29 300 0 213 1 228 18 221 9 -4 28 -9 42 -11 25 -4 25 -4 -2 9
-58 27 -78 57 -78 112 0 43 4 55 28 77 39 38 83 48 197 45 72 -2 109 -8 133
-21z"/>
<path d="M5345 2891 c-86 -22 -115 -72 -96 -165 15 -72 15 -390 0 -511 -13
-100 -56 -176 -161 -285 -40 -41 -77 -82 -83 -91 -5 -9 -18 -27 -27 -41 -24
-33 -28 -267 -5 -301 11 -18 13 -102 12 -489 -1 -302 -5 -471 -12 -480 -5 -7
-11 -69 -12 -138 -2 -122 -1 -126 27 -170 59 -93 272 -163 486 -159 189 3 399
76 452 157 15 23 18 47 16 161 -1 76 -6 139 -12 146 -7 9 -10 164 -9 474 2
428 4 462 21 488 15 23 18 49 18 150 0 118 -1 123 -29 165 -16 24 -50 66 -76
93 -61 65 -128 152 -148 191 -30 57 -37 116 -43 342 -6 209 -6 224 12 243 15
16 19 36 18 85 -1 72 -15 96 -74 121 -40 17 -227 27 -275 14z m273 -35 c40
-21 61 -65 57 -120 -3 -32 -12 -48 -40 -74 -26 -24 -31 -32 -16 -27 21 6 21 5
21 -207 0 -306 20 -366 175 -526 44 -46 84 -93 90 -104 15 -33 -24 -60 -215
-147 -22 -9 -19 -10 20 -5 60 9 138 44 183 83 l36 32 7 -25 c3 -14 4 -54 1
-88 -4 -35 -6 -82 -6 -104 -1 -31 -8 -48 -28 -69 -30 -29 -120 -78 -167 -89
-15 -4 -26 -10 -22 -13 9 -9 95 18 143 45 l43 24 0 -438 c-1 -241 -3 -448 -6
-460 -6 -23 -75 -78 -134 -106 -19 -9 -29 -17 -22 -17 17 -1 132 56 154 76 16
14 18 14 26 -8 7 -20 9 -158 3 -234 -8 -116 -402 -206 -645 -148 -33 8 -68 16
-76 18 -84 20 -174 69 -199 108 -18 30 -21 50 -21 155 0 72 4 123 10 127 6 4
34 -9 63 -28 58 -39 127 -70 127 -58 0 4 -17 16 -37 25 -21 9 -60 36 -86 59
l-48 42 1 444 c0 245 2 447 5 449 2 2 19 -5 38 -17 45 -28 145 -62 151 -52 3
4 -14 14 -37 20 -53 16 -136 63 -165 93 -20 22 -22 35 -23 147 0 67 1 125 4
128 3 2 22 -11 44 -29 21 -19 59 -44 85 -56 57 -26 135 -41 124 -24 -4 7 -16
12 -26 12 -24 0 -148 64 -177 92 -13 12 -23 29 -23 38 0 8 30 45 66 80 87 86
148 173 179 254 24 64 25 76 25 292 0 212 1 226 18 219 9 -4 28 -9 42 -11 25
-4 25 -4 -2 9 -58 27 -78 57 -78 112 0 43 4 55 28 77 39 38 83 48 197 45 72
-2 109 -8 133 -21z"/>
</g>
</svg>
